# xmcd
#
# Track frame offsets:
#	150
#	14280
#	26082
#	39517
#	53405
#	65457
#	79320
#	92350
#	108495
#	122440
#	136725
#	151172
#	165055
#	179302
#	191602
#	202070
#	213495
#	227880
#	242147
#	253515
#
# Disc length: 3572 seconds
#
# Revision: 1
# Processed by: cddbd v1.5.2PL0 Copyright (c) Steve Scherf et al.
# Submitted via: audiograbber 1.83.01
#
DISCID=fd0df214
DTITLE=The Full Moon Guitars - New country (Instrumental)
DYEAR=1997
DGENRE=Country
TTITLE0=Any major dude will tell you
TTITLE1=Achy breaky heart
TTITLE2=All I wanna do
TTITLE3=Mexico
TTITLE4=Leaving Las Vegas
TTITLE5=Long time gone
TTITLE6=Free man I Paris
TTITLE7=Constant craving
TTITLE8=Smoking' in the rain
TTITLE9=Playin' fool
TTITLE10=Meadow green
TTITLE11=The road goes on forever
TTITLE12=Time to learn
TTITLE13=Lose again
TTITLE14=I'll stay around
TTITLE15=One more ride
TTITLE16=By the Rio Grande
TTITLE17=Nothing ever happens
TTITLE18=Blackbird
TTITLE19=Big yellow taxi
EXTD=
EXTT0=
EXTT1=
EXTT2=
EXTT3=
EXTT4=
EXTT5=
EXTT6=
EXTT7=
EXTT8=
EXTT9=
EXTT10=
EXTT11=
EXTT12=
EXTT13=
EXTT14=
EXTT15=
EXTT16=
EXTT17=
EXTT18=
EXTT19=
PLAYORDER=
